<svg width="58" height="58" viewBox="0 0 58 58" fill="none" xmlns="http://www.w3.org/2000/svg">
<g clip-path="url(#clip0)">
<path d="M57.0891 8.61389H0.910645V53.0111H57.0981V8.61389H57.0891Z" fill="white"/>
<path d="M4.54492 12.2561H53.4824V34.8942H4.54492V12.2561Z" fill="#56D589"/>
<path d="M23.5578 18.5826H13.5981H11.7856C10.7888 18.5826 9.97314 19.3983 9.97314 20.3951V27.6452C9.97314 28.642 10.7888 29.4577 11.7856 29.4577H23.5578C24.5547 29.4577 25.3703 28.642 25.3703 27.6452V20.3951C25.3703 19.3983 24.5547 18.5826 23.5578 18.5826Z" fill="#56D589"/>
<path d="M57.0894 6.80139V8.61389H0.910918H0.901855V6.80139C0.901855 5.80452 1.70842 4.98889 2.71436 4.98889H55.2769C56.2819 4.98889 57.0894 5.80452 57.0894 6.80139Z" fill="#56D589"/>
<path d="M11.3418 38.5201C12.8462 38.5201 14.0605 39.7345 14.0605 41.2389C14.0605 42.7433 12.8462 43.9576 11.3418 43.9576C9.84739 43.9576 8.62305 42.7433 8.62305 41.2389C8.62305 39.7345 9.84648 38.5201 11.3418 38.5201Z" fill="#56D589"/>
<path d="M46.6582 38.5201C48.1526 38.5201 49.377 39.7345 49.377 41.2389C49.377 42.7433 48.1526 43.9576 46.6582 43.9576C45.1538 43.9576 43.9395 42.7433 43.9395 41.2389C43.9395 39.7345 45.1538 38.5201 46.6582 38.5201Z" fill="#56D589"/>
<path d="M28.9956 38.5201C30.5 38.5201 31.7143 39.7345 31.7143 41.2389C31.7143 42.7433 30.5 43.9576 28.9956 43.9576C27.5003 43.9576 26.2769 42.7433 26.2769 41.2389C26.2769 39.7345 27.5003 38.5201 28.9956 38.5201Z" fill="#56D589"/>
<path d="M19.0356 21.3014C20.531 21.3014 21.7544 22.5248 21.7544 24.0201C21.7544 25.5245 20.531 26.7389 19.0356 26.7389C17.5313 26.7389 16.3169 25.5245 16.3169 24.0201C16.3169 22.5239 17.5313 21.3014 19.0356 21.3014Z" fill="#56D589"/>
<path d="M3.64857 7.70764C3.14742 7.70764 2.73779 7.30255 2.73779 6.80139C2.73779 6.30024 3.13836 5.89514 3.63861 5.89514H3.64857C4.14882 5.89514 4.55482 6.30024 4.55482 6.80139C4.55482 7.30255 4.14882 7.70764 3.64857 7.70764Z" fill="#0F6D70"/>
<path d="M6.36732 7.70764C5.86617 7.70764 5.45654 7.30255 5.45654 6.80139C5.45654 6.30024 5.85711 5.89514 6.35736 5.89514H6.36732C6.86757 5.89514 7.27357 6.30024 7.27357 6.80139C7.27357 7.30255 6.86757 7.70764 6.36732 7.70764Z" fill="#0F6D70"/>
<path d="M9.08607 7.70764C8.58492 7.70764 8.17529 7.30255 8.17529 6.80139C8.17529 6.30024 8.57586 5.89514 9.07611 5.89514H9.08607C9.58632 5.89514 9.99232 6.30024 9.99232 6.80139C9.99232 7.30255 9.58632 7.70764 9.08607 7.70764Z" fill="#0F6D70"/>
<path d="M57.0976 53.9173H0.910156C0.409 53.9173 0.00390625 53.5122 0.00390625 53.0111V8.61389C0.00390625 8.11274 0.409 7.70764 0.910156 7.70764H57.0976C57.5988 7.70764 58.0039 8.11274 58.0039 8.61389V53.0111C58.0039 53.5122 57.5988 53.9173 57.0976 53.9173ZM1.81641 52.1048H56.1914V9.52014H1.81641V52.1048Z" fill="#0F6D70"/>
<path d="M0.902832 7.70764C0.401676 7.70764 -0.00341797 7.30255 -0.00341797 6.80139C-0.00341797 5.30245 1.21639 4.08264 2.71533 4.08264C3.21649 4.08264 3.62158 4.48774 3.62158 4.98889C3.62158 5.49005 3.21649 5.89514 2.71533 5.89514C2.21508 5.89514 1.80908 6.30114 1.80908 6.80139C1.80908 7.30255 1.40399 7.70764 0.902832 7.70764Z" fill="#0F6D70"/>
<path d="M0.902832 9.52014C0.401676 9.52014 -0.00341797 9.11505 -0.00341797 8.61389V6.80139C-0.00341797 6.30024 0.401676 5.89514 0.902832 5.89514C1.40399 5.89514 1.80908 6.30024 1.80908 6.80139V8.61389C1.80908 9.11505 1.40399 9.52014 0.902832 9.52014Z" fill="#0F6D70"/>
<path d="M57.0903 7.70764C56.5892 7.70764 56.1841 7.30255 56.1841 6.80139C56.1841 6.30114 55.7781 5.89514 55.2778 5.89514C54.7767 5.89514 54.3716 5.49005 54.3716 4.98889C54.3716 4.48774 54.7767 4.08264 55.2778 4.08264C56.7768 4.08264 57.9966 5.30245 57.9966 6.80139C57.9966 7.30255 57.5915 7.70764 57.0903 7.70764Z" fill="#0F6D70"/>
<path d="M57.0903 9.52014C56.5892 9.52014 56.1841 9.11505 56.1841 8.61389V6.80139C56.1841 6.30024 56.5892 5.89514 57.0903 5.89514C57.5915 5.89514 57.9966 6.30024 57.9966 6.80139V8.61389C57.9966 9.11505 57.5915 9.52014 57.0903 9.52014Z" fill="#0F6D70"/>
<path d="M55.2778 5.89514H2.71533C2.21418 5.89514 1.80908 5.49005 1.80908 4.98889C1.80908 4.48774 2.21418 4.08264 2.71533 4.08264H55.2778C55.779 4.08264 56.1841 4.48774 56.1841 4.98889C56.1841 5.49005 55.779 5.89514 55.2778 5.89514Z" fill="#0F6D70"/>
<path d="M17.2333 47.5898H5.45654C4.95539 47.5898 4.55029 47.1847 4.55029 46.6836C4.55029 46.1824 4.95539 45.7773 5.45654 45.7773H17.2324C17.7335 45.7773 18.1386 46.1824 18.1386 46.6836C18.1386 47.1847 17.7335 47.5898 17.2333 47.5898Z" fill="#0F6D70"/>
<path d="M52.5756 47.5898H40.7998C40.2986 47.5898 39.8936 47.1847 39.8936 46.6836C39.8936 46.1824 40.2986 45.7773 40.7998 45.7773H52.5756C53.0768 45.7773 53.4819 46.1824 53.4819 46.6836C53.4819 47.1847 53.0759 47.5898 52.5756 47.5898Z" fill="#0F6D70"/>
<path d="M34.8925 47.5898H23.1167C22.6155 47.5898 22.2104 47.1847 22.2104 46.6836C22.2104 46.1824 22.6155 45.7773 23.1167 45.7773H34.8925C35.3937 45.7773 35.7988 46.1824 35.7988 46.6836C35.7988 47.1847 35.3937 47.5898 34.8925 47.5898Z" fill="#0F6D70"/>
<path d="M32.1902 50.3086H25.8184C25.3172 50.3086 24.9121 49.9035 24.9121 49.4023C24.9121 48.9012 25.3172 48.4961 25.8184 48.4961H32.1902C32.6914 48.4961 33.0965 48.9012 33.0965 49.4023C33.0965 49.9035 32.6905 50.3086 32.1902 50.3086Z" fill="#0F6D70"/>
<path d="M49.8619 50.3086H43.5127C43.0115 50.3086 42.6064 49.9035 42.6064 49.4023C42.6064 48.9012 43.0115 48.4961 43.5127 48.4961H49.8619C50.363 48.4961 50.7681 48.9012 50.7681 49.4023C50.7681 49.9035 50.3621 50.3086 49.8619 50.3086Z" fill="#0F6D70"/>
<path d="M14.5181 50.3086H8.17529C7.67414 50.3086 7.26904 49.9035 7.26904 49.4023C7.26904 48.9012 7.67414 48.4961 8.17529 48.4961H14.5172C15.0184 48.4961 15.4235 48.9012 15.4235 49.4023C15.4235 49.9035 15.0184 50.3086 14.5181 50.3086Z" fill="#0F6D70"/>
<path d="M53.4873 35.8032H4.5498C4.04865 35.8032 3.64355 35.3981 3.64355 34.897V12.2534C3.64355 11.7523 4.04865 11.3472 4.5498 11.3472H53.4873C53.9885 11.3472 54.3936 11.7523 54.3936 12.2534V34.897C54.3936 35.3981 53.9876 35.8032 53.4873 35.8032ZM5.45605 33.9907H52.5811V13.1597H5.45605V33.9907Z" fill="#0F6D70"/>
<path d="M48.945 20.3988H30.8218C30.3206 20.3988 29.9155 19.9937 29.9155 19.4926C29.9155 18.9914 30.3206 18.5863 30.8218 18.5863H48.945C49.4461 18.5863 49.8512 18.9914 49.8512 19.4926C49.8512 19.9937 49.4461 20.3988 48.945 20.3988Z" fill="#0F6D70"/>
<path d="M48.945 23.1248H30.8218C30.3206 23.1248 29.9155 22.7197 29.9155 22.2185C29.9155 21.7173 30.3206 21.3123 30.8218 21.3123H48.945C49.4461 21.3123 49.8512 21.7173 49.8512 22.2185C49.8512 22.7197 49.4461 23.1248 48.945 23.1248Z" fill="#0F6D70"/>
<path d="M48.945 25.8336H30.8218C30.3206 25.8336 29.9155 25.4285 29.9155 24.9274C29.9155 24.4262 30.3206 24.0211 30.8218 24.0211H48.945C49.4461 24.0211 49.8512 24.4262 49.8512 24.9274C49.8512 25.4285 49.4461 25.8336 48.945 25.8336Z" fill="#0F6D70"/>
<path d="M39.8825 28.5713H30.8218C30.3206 28.5713 29.9155 28.1662 29.9155 27.665C29.9155 27.1639 30.3206 26.7588 30.8218 26.7588H39.8825C40.3836 26.7588 40.7887 27.1639 40.7887 27.665C40.7887 28.1662 40.3836 28.5713 39.8825 28.5713Z" fill="#0F6D70"/>
<path d="M23.558 30.3621H11.7886C10.2896 30.3621 9.06982 29.1423 9.06982 27.6433V20.3933C9.06982 18.8944 10.2896 17.6746 11.7886 17.6746H23.558C25.057 17.6746 26.2768 18.8944 26.2768 20.3933V27.6433C26.2768 29.1423 25.057 30.3621 23.558 30.3621ZM11.7886 19.4871C11.2883 19.4871 10.8823 19.8931 10.8823 20.3933V27.6433C10.8823 28.1436 11.2883 28.5496 11.7886 28.5496H23.558C24.0583 28.5496 24.4643 28.1436 24.4643 27.6433V20.3933C24.4643 19.8931 24.0583 19.4871 23.558 19.4871H11.7886Z" fill="#0F6D70"/>
<path d="M19.0322 27.6478C17.033 27.6478 15.4072 26.022 15.4072 24.0228C15.4072 22.0236 17.033 20.3978 19.0322 20.3978C21.0314 20.3978 22.6572 22.0236 22.6572 24.0228C22.6572 26.022 21.0314 27.6478 19.0322 27.6478ZM19.0322 22.2103C18.0326 22.2103 17.2197 23.0232 17.2197 24.0228C17.2197 25.0224 18.0326 25.8353 19.0322 25.8353C20.0318 25.8353 20.8447 25.0224 20.8447 24.0228C20.8447 23.0232 20.0318 22.2103 19.0322 22.2103Z" fill="#0F6D70"/>
<path d="M13.5957 19.4871C13.0945 19.4871 12.6895 19.082 12.6895 18.5808V17.6782C12.6895 17.1771 13.0945 16.772 13.5957 16.772C14.0969 16.772 14.502 17.1771 14.502 17.6782V18.5808C14.502 19.082 14.0969 19.4871 13.5957 19.4871Z" fill="#0F6D70"/>
<path d="M13.6159 22.2076C13.1147 22.2076 12.7051 21.8025 12.7051 21.3014C12.7051 20.8002 13.1056 20.3951 13.6059 20.3951H13.6159C14.1161 20.3951 14.5221 20.8002 14.5221 21.3014C14.5221 21.8025 14.1161 22.2076 13.6159 22.2076Z" fill="#0F6D70"/>
<path d="M11.3457 44.863C9.34651 44.863 7.7207 43.2372 7.7207 41.238C7.7207 39.2388 9.34651 37.613 11.3457 37.613C13.3449 37.613 14.9707 39.2388 14.9707 41.238C14.9707 43.2372 13.3449 44.863 11.3457 44.863ZM11.3457 39.4255C10.3461 39.4255 9.5332 40.2384 9.5332 41.238C9.5332 42.2376 10.3461 43.0505 11.3457 43.0505C12.3453 43.0505 13.1582 42.2376 13.1582 41.238C13.1582 40.2384 12.3444 39.4255 11.3457 39.4255Z" fill="#0F6D70"/>
<path d="M29 44.863C27.0008 44.863 25.375 43.2372 25.375 41.238C25.375 39.2388 27.0008 37.613 29 37.613C30.9992 37.613 32.625 39.2388 32.625 41.238C32.625 43.2372 30.9992 44.863 29 44.863ZM29 39.4255C28.0004 39.4255 27.1875 40.2384 27.1875 41.238C27.1875 42.2376 28.0004 43.0505 29 43.0505C29.9996 43.0505 30.8125 42.2376 30.8125 41.238C30.8125 40.2384 29.9996 39.4255 29 39.4255Z" fill="#0F6D70"/>
<path d="M46.6548 44.863C44.6556 44.863 43.0298 43.2372 43.0298 41.238C43.0298 39.2388 44.6556 37.613 46.6548 37.613C48.654 37.613 50.2798 39.2388 50.2798 41.238C50.2798 43.2372 48.6549 44.863 46.6548 44.863ZM46.6548 39.4255C45.6552 39.4255 44.8423 40.2384 44.8423 41.238C44.8423 42.2376 45.6552 43.0505 46.6548 43.0505C47.6544 43.0505 48.4673 42.2376 48.4673 41.238C48.4673 40.2384 47.6544 39.4255 46.6548 39.4255Z" fill="#0F6D70"/>
</g>
<defs>
<clipPath id="clip0">
<rect width="58" height="58" fill="white"/>
</clipPath>
</defs>
</svg>
