<svg width="58" height="58" viewBox="0 0 58 58" fill="none" xmlns="http://www.w3.org/2000/svg">
<g clip-path="url(#clip0)">
<path d="M7.25 18.125V29V50.7137L16.5481 41.4156C13.6028 38.4703 11.7812 34.4013 11.7812 29.8972C11.7812 25.2663 13.7116 21.0884 16.8109 18.125C17.2278 17.7172 17.6628 17.3366 18.125 16.9922V7.25L7.25 18.125Z" fill="#56D589"/>
<path d="M50.75 29V39.875H41.0078C43.1375 37.12 44.4062 33.659 44.4062 29.8972C44.4062 25.52 42.6844 21.5506 39.875 18.6144V18.125L50.75 7.25V29Z" fill="#56D589"/>
<path d="M39.875 18.125H39.3856C36.4593 15.3156 32.48 13.5847 28.0938 13.5847C24.3419 13.5847 20.88 14.8534 18.125 16.9922V7.25H29H50.75L39.875 18.125Z" fill="#56D589"/>
<path d="M39.875 18.6144C39.7209 18.4513 39.5578 18.2891 39.3856 18.125C36.4593 15.3157 32.48 13.5847 28.0938 13.5847C24.3419 13.5847 20.88 14.8535 18.125 16.9922C17.6628 17.3366 17.2278 17.7172 16.8109 18.125C13.7116 21.0894 11.7812 25.2663 11.7812 29.8972C11.7812 34.4013 13.6028 38.4703 16.5481 41.4157C19.4934 44.38 23.5806 46.2097 28.0938 46.2097C32.7337 46.2097 36.9116 44.2794 39.875 41.18C40.2738 40.7632 40.6544 40.3282 41.0078 39.875C43.1375 37.12 44.4062 33.6591 44.4062 29.8972C44.4062 25.52 42.6844 21.5507 39.875 18.6144Z" fill="white"/>
<path d="M39.8749 18.6144C39.7208 18.4513 39.5577 18.2891 39.3855 18.125C36.4592 15.3157 32.4799 13.5847 28.0936 13.5847C27.4846 13.5847 26.8865 13.63 26.2947 13.6953C29.9514 14.104 33.2438 15.7126 35.7569 18.125C35.929 18.2891 36.0922 18.4513 36.2462 18.6144C39.0556 21.5507 40.7775 25.52 40.7775 29.8972C40.7775 33.6582 39.5087 37.12 37.379 39.875C37.0256 40.3282 36.645 40.7632 36.2462 41.18C33.677 43.868 30.1916 45.6714 26.2856 46.1046C26.8801 46.1698 27.4819 46.2097 28.0936 46.2097C32.7336 46.2097 36.9114 44.2794 39.8749 41.18C40.2736 40.7632 40.6542 40.3282 41.0077 39.875C43.1374 37.12 44.4061 33.6591 44.4061 29.8972C44.4061 25.52 42.6842 21.5507 39.8749 18.6144Z" fill="#56D589"/>
<path d="M41.0078 39.875C40.6544 40.3281 40.2738 40.7631 39.875 41.18C36.9116 44.2794 32.7337 46.2097 28.0938 46.2097C23.5806 46.2097 19.4934 44.3791 16.5481 41.4156L7.25 50.7137V50.75H29H39.875L50.75 39.875H41.0078Z" fill="#56D589"/>
<path d="M39.875 51.6581H7.25C6.74884 51.6581 6.34375 51.253 6.34375 50.7518V18.1268C6.34375 17.6257 6.74884 17.2206 7.25 17.2206H39.875C40.3762 17.2206 40.7812 17.6257 40.7812 18.1268V50.7518C40.7812 51.253 40.3762 51.6581 39.875 51.6581ZM8.15625 49.8456H38.9688V19.0331H8.15625V49.8456Z" fill="#0F6D70"/>
<path d="M39.8752 51.6581C39.6432 51.6581 39.4112 51.5692 39.2345 51.3925C38.8802 51.0382 38.8802 50.4654 39.2345 50.1111L50.1104 39.2361C50.4647 38.8818 51.0375 38.8818 51.3918 39.2361C51.7462 39.5904 51.7462 40.1632 51.3918 40.5175L40.5159 51.3925C40.3392 51.5692 40.1072 51.6581 39.8752 51.6581Z" fill="#0F6D70"/>
<path d="M39.8752 19.0294C39.6432 19.0294 39.4112 18.9406 39.2345 18.7639C38.8802 18.4095 38.8802 17.8368 39.2345 17.4824L50.1104 6.60743C50.4647 6.25309 51.0375 6.25309 51.3918 6.60743C51.7462 6.96178 51.7462 7.53453 51.3918 7.88887L40.5159 18.7639C40.3392 18.9406 40.1072 19.0294 39.8752 19.0294Z" fill="#0F6D70"/>
<path d="M7.24827 19.0294C7.01627 19.0294 6.78427 18.9406 6.60755 18.7639C6.25321 18.4095 6.25321 17.8368 6.60755 17.4824L17.4835 6.60743C17.8378 6.25309 18.4106 6.25309 18.7649 6.60743C19.1192 6.96178 19.1192 7.53453 18.7649 7.88887L7.88899 18.7639C7.71227 18.9406 7.48027 19.0294 7.24827 19.0294Z" fill="#0F6D70"/>
<path d="M50.7513 8.15442H18.1245C17.6234 8.15442 17.2183 7.74932 17.2183 7.24817C17.2183 6.74701 17.6234 6.34192 18.1245 6.34192H50.7513C51.2525 6.34192 51.6576 6.74701 51.6576 7.24817C51.6576 7.74932 51.2525 8.15442 50.7513 8.15442Z" fill="#0F6D70"/>
<path d="M50.751 40.783C50.2498 40.783 49.8447 40.378 49.8447 39.8768V7.24817C49.8447 6.74701 50.2498 6.34192 50.751 6.34192C51.2521 6.34192 51.6572 6.74701 51.6572 7.24817V39.8768C51.6572 40.378 51.2521 40.783 50.751 40.783Z" fill="#0F6D70"/>
<path d="M7.21849 51.6581C6.98649 51.6581 6.75449 51.5693 6.57777 51.3925C6.22343 51.0382 6.22343 50.4654 6.57777 50.1111L15.9076 40.7813C16.262 40.4269 16.8347 40.4269 17.1891 40.7813C17.5434 41.1356 17.5434 41.7084 17.1891 42.0627L7.85921 51.3925C7.68249 51.5693 7.45049 51.6581 7.21849 51.6581Z" fill="#0F6D70"/>
<path d="M18.1245 17.9002C17.6234 17.9002 17.2183 17.4951 17.2183 16.994V7.24817C17.2183 6.74701 17.6234 6.34192 18.1245 6.34192C18.6257 6.34192 19.0308 6.74701 19.0308 7.24817V16.994C19.0308 17.4951 18.6257 17.9002 18.1245 17.9002Z" fill="#0F6D70"/>
<path d="M50.7512 40.7831H41.0054C40.5042 40.7831 40.0991 40.378 40.0991 39.8768C40.0991 39.3757 40.5042 38.9706 41.0054 38.9706H50.7512C51.2523 38.9706 51.6574 39.3757 51.6574 39.8768C51.6574 40.378 51.2523 40.7831 50.7512 40.7831Z" fill="#0F6D70"/>
<path d="M28.0986 47.1223C18.6039 47.1223 10.8799 39.3984 10.8799 29.9036C10.8799 20.4088 18.6039 12.6848 28.0986 12.6848C37.5934 12.6848 45.3174 20.4088 45.3174 29.9036C45.3174 39.3984 37.5925 47.1223 28.0986 47.1223ZM28.0986 14.4973C19.6034 14.4973 12.6924 21.4084 12.6924 29.9036C12.6924 38.3988 19.6034 45.3098 28.0986 45.3098C36.5938 45.3098 43.5049 38.3988 43.5049 29.9036C43.5049 21.4084 36.5938 14.4973 28.0986 14.4973Z" fill="#0F6D70"/>
<path d="M29 8.15897C28.4988 8.15897 28.0938 7.75388 28.0938 7.25272V0.90625C28.0938 0.405094 28.4988 0 29 0C29.5012 0 29.9062 0.405094 29.9062 0.90625V7.25272C29.9062 7.75388 29.5012 8.15897 29 8.15897Z" fill="#0F6D70"/>
<path d="M29.9056 2.71783C29.6736 2.71783 29.4416 2.62901 29.2649 2.4523L28.3595 1.54695C28.0052 1.19261 28.0052 0.619857 28.3595 0.265514C28.7139 -0.0888301 29.2866 -0.0888301 29.6409 0.265514L30.5463 1.17086C30.9006 1.5252 30.9006 2.09795 30.5463 2.4523C30.3696 2.62901 30.1376 2.71783 29.9056 2.71783Z" fill="#0F6D70"/>
<path d="M28.095 2.71783C27.863 2.71783 27.631 2.62901 27.4542 2.4523C27.0999 2.09795 27.0999 1.5252 27.4542 1.17086L28.3596 0.265514C28.7139 -0.0888301 29.2867 -0.0888301 29.641 0.265514C29.9954 0.619857 29.9954 1.19261 29.641 1.54695L28.7357 2.4523C28.559 2.62901 28.327 2.71783 28.095 2.71783Z" fill="#0F6D70"/>
<path d="M29 58C28.4988 58 28.0938 57.5949 28.0938 57.0938V50.7473C28.0938 50.2462 28.4988 49.8411 29 49.8411C29.5012 49.8411 29.9062 50.2462 29.9062 50.7473V57.0938C29.9062 57.5949 29.5012 58 29 58Z" fill="#0F6D70"/>
<path d="M29.0003 57.9999C28.7683 57.9999 28.5363 57.9111 28.3596 57.7344L27.4542 56.8291C27.0999 56.4747 27.0999 55.902 27.4542 55.5476C27.8086 55.1933 28.3813 55.1933 28.7357 55.5476L29.641 56.453C29.9954 56.8073 29.9954 57.3801 29.641 57.7344C29.4643 57.9111 29.2323 57.9999 29.0003 57.9999Z" fill="#0F6D70"/>
<path d="M29.0002 57.9999C28.7682 57.9999 28.5362 57.9111 28.3595 57.7344C28.0052 57.3801 28.0052 56.8073 28.3595 56.453L29.2649 55.5476C29.6192 55.1933 30.192 55.1933 30.5463 55.5476C30.9006 55.902 30.9006 56.4747 30.5463 56.8291L29.6409 57.7344C29.4642 57.9111 29.2322 57.9999 29.0002 57.9999Z" fill="#0F6D70"/>
<path d="M57.094 29.9062H50.7476C50.2464 29.9062 49.8413 29.5012 49.8413 29C49.8413 28.4988 50.2464 28.0938 50.7476 28.0938H57.094C57.5952 28.0938 58.0003 28.4988 58.0003 29C58.0003 29.5012 57.5952 29.9062 57.094 29.9062Z" fill="#0F6D70"/>
<path d="M56.1887 30.8116C55.9567 30.8116 55.7247 30.7228 55.548 30.546C55.1936 30.1917 55.1936 29.619 55.548 29.2646L56.4533 28.3593C56.8077 28.0049 57.3804 28.0049 57.7348 28.3593C58.0891 28.7136 58.0891 29.2864 57.7348 29.6407L56.8294 30.546C56.6527 30.7228 56.4207 30.8116 56.1887 30.8116Z" fill="#0F6D70"/>
<path d="M57.094 29.9062C56.862 29.9062 56.63 29.8174 56.4533 29.6407L55.548 28.7353C55.1936 28.381 55.1936 27.8082 55.548 27.4539C55.9023 27.0995 56.4751 27.0995 56.8294 27.4539L57.7348 28.3592C58.0891 28.7136 58.0891 29.2863 57.7348 29.6407C57.558 29.8174 57.326 29.9062 57.094 29.9062Z" fill="#0F6D70"/>
<path d="M7.25272 29.9062H0.90625C0.405094 29.9062 0 29.5012 0 29C0 28.4988 0.405094 28.0938 0.90625 28.0938H7.25272C7.75388 28.0938 8.15897 28.4988 8.15897 29C8.15897 29.5012 7.75388 29.9062 7.25272 29.9062Z" fill="#0F6D70"/>
<path d="M0.906477 29.9062C0.674477 29.9062 0.442477 29.8174 0.265758 29.6407C-0.088586 29.2863 -0.088586 28.7136 0.265758 28.3592L1.1711 27.4539C1.52545 27.0995 2.0982 27.0995 2.45254 27.4539C2.80688 27.8082 2.80688 28.381 2.45254 28.7353L1.5472 29.6407C1.37048 29.8174 1.13848 29.9062 0.906477 29.9062Z" fill="#0F6D70"/>
<path d="M1.81182 30.8116C1.57982 30.8116 1.34782 30.7228 1.1711 30.546L0.265758 29.6407C-0.088586 29.2864 -0.088586 28.7136 0.265758 28.3593C0.620102 28.0049 1.19285 28.0049 1.5472 28.3593L2.45254 29.2646C2.80688 29.619 2.80688 30.1917 2.45254 30.546C2.27582 30.7228 2.04382 30.8116 1.81182 30.8116Z" fill="#0F6D70"/>
</g>
<defs>
<clipPath id="clip0">
<rect width="58" height="58" fill="white"/>
</clipPath>
</defs>
</svg>
