<svg width="58" height="58" viewBox="0 0 58 58" fill="none" xmlns="http://www.w3.org/2000/svg">
<path d="M51.6562 14.5045H48.0312C45.0225 14.5045 42.5938 12.0667 42.5938 9.06705C42.5938 8.06111 41.7781 7.24548 40.7812 7.24548V7.25455H28.0938C27.0969 7.25455 26.2812 8.06111 26.2812 9.05798V9.06705C26.2812 12.0667 23.8525 14.5045 20.8438 14.5045H15.4153H9.96875C12.9775 14.5045 15.4062 16.9333 15.4062 19.942V45.308C15.4062 48.3158 12.9775 50.7455 9.96875 50.7455V50.7545H51.6562C54.6469 50.7545 57.0938 48.3077 57.0938 45.317V19.942C57.0938 16.9514 54.6469 14.5045 51.6562 14.5045Z" fill="#56D589"/>
<path d="M15.4153 11.7858V14.5045H9.96875H6.34375V11.7858H15.4153Z" fill="#56D589"/>
<path d="M48.9372 29.0045C50.94 29.0045 52.5622 30.6267 52.5622 32.6295C52.5622 34.6323 50.94 36.2545 48.9372 36.2545C48.7832 36.2545 48.6382 36.2455 48.4932 36.2273C48.7832 35.0764 48.9372 33.8629 48.9372 32.6214C48.9372 31.3798 48.7832 30.1745 48.4932 29.0226C48.6382 29.0045 48.7832 29.0045 48.9372 29.0045Z" fill="#56D589"/>
<path d="M34.4375 21.7455C40.4459 21.7455 45.3125 26.6211 45.3125 32.6205C45.3125 38.6289 40.4459 43.4955 34.4375 43.4955C28.4381 43.4955 23.5625 38.6289 23.5625 32.6205C23.5625 26.6211 28.4381 21.7455 34.4375 21.7455Z" fill="white"/>
<path d="M34.4374 21.7455C33.8176 21.7455 33.2149 21.8089 32.624 21.9095C37.7661 22.7759 41.6838 27.241 41.6838 32.6205C41.6838 38.009 37.7661 42.4669 32.624 43.3314C33.2149 43.4311 33.8176 43.4955 34.4374 43.4955C40.4459 43.4955 45.3124 38.6289 45.3124 32.6205C45.3124 26.6211 40.4459 21.7455 34.4374 21.7455Z" fill="#56D589"/>
<path d="M48.4934 29.0218C48.7834 30.1736 48.9375 31.3789 48.9375 32.6205C48.9375 33.862 48.7834 35.0764 48.4934 36.2264C46.8803 42.4895 41.2072 47.1205 34.4375 47.1205C26.4353 47.1205 19.9375 40.6317 19.9375 32.6205C19.9375 24.6183 26.4353 18.1205 34.4375 18.1205C41.2072 18.1205 46.8803 22.7505 48.4934 29.0218ZM45.3125 32.6205C45.3125 26.6211 40.4459 21.7455 34.4375 21.7455C28.4381 21.7455 23.5625 26.6211 23.5625 32.6205C23.5625 38.6289 28.4381 43.4955 34.4375 43.4955C40.4459 43.4955 45.3125 38.6289 45.3125 32.6205Z" fill="#56D589"/>
<path d="M15.4062 19.942V45.308C15.4062 48.3158 12.9775 50.7455 9.96875 50.7455V50.7545H6.34375C3.35313 50.7545 0.90625 48.3076 0.90625 45.317V19.942C0.90625 16.9514 3.35313 14.5045 6.34375 14.5045H9.96875C12.9775 14.5045 15.4062 16.9333 15.4062 19.942Z" fill="#56D589"/>
<path d="M51.6562 51.6581H6.34375C2.84653 51.6581 0 48.8115 0 45.3143V19.9375C0 16.4403 2.84653 13.5938 6.34375 13.5938C6.84491 13.5938 7.25 13.9988 7.25 14.5C7.25 15.0012 6.84491 15.4062 6.34375 15.4062C3.84522 15.4062 1.8125 17.439 1.8125 19.9375V45.3143C1.8125 47.8128 3.84522 49.8456 6.34375 49.8456H51.6562C54.1548 49.8456 56.1875 47.8128 56.1875 45.3143V19.9375C56.1875 17.439 54.1548 15.4062 51.6562 15.4062C51.1551 15.4062 50.75 15.0012 50.75 14.5C50.75 13.9988 51.1551 13.5938 51.6562 13.5938C55.1535 13.5938 58 16.4403 58 19.9375V45.3143C58 48.8115 55.1535 51.6581 51.6562 51.6581Z" fill="#0F6D70"/>
<path d="M15.4106 20.8438C14.9095 20.8438 14.5044 20.4387 14.5044 19.9375C14.5044 17.439 12.4717 15.4062 9.97314 15.4062C9.47199 15.4062 9.06689 15.0012 9.06689 14.5C9.06689 13.9988 9.47199 13.5938 9.97314 13.5938C13.4704 13.5938 16.3169 16.4403 16.3169 19.9375C16.3169 20.4387 15.9118 20.8438 15.4106 20.8438Z" fill="#0F6D70"/>
<path d="M9.97217 51.6544C9.47101 51.6544 9.06592 51.2493 9.06592 50.7482C9.06592 50.247 9.47101 49.8419 9.97217 49.8419C12.4707 49.8419 14.5034 47.8092 14.5034 45.3107C14.5034 44.8095 14.9085 44.4044 15.4097 44.4044C15.9108 44.4044 16.3159 44.8095 16.3159 45.3107C16.3159 48.8079 13.4694 51.6544 9.97217 51.6544Z" fill="#0F6D70"/>
<path d="M15.4106 46.2169C14.9095 46.2169 14.5044 45.8118 14.5044 45.3107V19.9375C14.5044 19.4363 14.9095 19.0312 15.4106 19.0312C15.9118 19.0312 16.3169 19.4363 16.3169 19.9375V45.3107C16.3169 45.8118 15.9118 46.2169 15.4106 46.2169Z" fill="#0F6D70"/>
<path d="M6.34375 15.4062C5.84259 15.4062 5.4375 15.0012 5.4375 14.5V11.7812C5.4375 11.2801 5.84259 10.875 6.34375 10.875C6.84491 10.875 7.25 11.2801 7.25 11.7812V14.5C7.25 15.0012 6.84491 15.4062 6.34375 15.4062Z" fill="#0F6D70"/>
<path d="M15.4144 12.6875H6.34375C5.84259 12.6875 5.4375 12.2824 5.4375 11.7812C5.4375 11.2801 5.84259 10.875 6.34375 10.875H15.4144C15.9156 10.875 16.3207 11.2801 16.3207 11.7812C16.3207 12.2824 15.9156 12.6875 15.4144 12.6875Z" fill="#0F6D70"/>
<path d="M15.4146 15.4062C14.9134 15.4062 14.5083 15.0012 14.5083 14.5V11.7812C14.5083 11.2801 14.9134 10.875 15.4146 10.875C15.9157 10.875 16.3208 11.2801 16.3208 11.7812V14.5C16.3208 15.0012 15.9157 15.4062 15.4146 15.4062Z" fill="#0F6D70"/>
<path d="M34.4395 48.0286C25.9443 48.0286 19.0332 41.1175 19.0332 32.6223C19.0332 24.1271 25.9443 17.2161 34.4395 17.2161C42.9346 17.2161 49.8457 24.1271 49.8457 32.6223C49.8457 41.1175 42.9346 48.0286 34.4395 48.0286ZM34.4395 19.0286C26.9439 19.0286 20.8457 25.1267 20.8457 32.6223C20.8457 40.1179 26.9439 46.2161 34.4395 46.2161C41.935 46.2161 48.0332 40.1179 48.0332 32.6223C48.0332 25.1267 41.935 19.0286 34.4395 19.0286Z" fill="#0F6D70"/>
<path d="M34.4394 44.4036C27.9434 44.4036 22.6582 39.1183 22.6582 32.6223C22.6582 26.1263 27.9434 20.8411 34.4394 20.8411C40.9354 20.8411 46.2207 26.1263 46.2207 32.6223C46.2207 39.1183 40.9354 44.4036 34.4394 44.4036ZM34.4394 22.6536C28.943 22.6536 24.4707 27.1259 24.4707 32.6223C24.4707 38.1187 28.943 42.5911 34.4394 42.5911C39.9358 42.5911 44.4082 38.1187 44.4082 32.6223C44.4082 27.1259 39.9358 22.6536 34.4394 22.6536Z" fill="#0F6D70"/>
<path d="M48.0303 15.4053C44.5331 15.4053 41.6875 12.5597 41.6875 9.0625C41.6875 8.56134 42.0926 8.15625 42.5938 8.15625C43.0949 8.15625 43.5 8.56134 43.5 9.0625C43.5 11.561 45.5318 13.5928 48.0303 13.5928C48.5315 13.5928 48.9366 13.9979 48.9366 14.4991C48.9366 15.0002 48.5315 15.4053 48.0303 15.4053Z" fill="#0F6D70"/>
<path d="M20.8447 15.4053C20.3436 15.4053 19.9385 15.0002 19.9385 14.499C19.9385 13.9979 20.3436 13.5928 20.8447 13.5928C23.3433 13.5928 25.376 11.5601 25.376 9.06152C25.376 8.56037 25.7811 8.15527 26.2822 8.15527C26.7834 8.15527 27.1885 8.56037 27.1885 9.06152C27.1885 12.5587 24.3419 15.4053 20.8447 15.4053Z" fill="#0F6D70"/>
<path d="M26.2832 9.96694C25.782 9.96694 25.377 9.56184 25.377 9.06069C25.377 7.56266 26.5959 6.34375 28.0939 6.34375C28.595 6.34375 29.0001 6.74884 29.0001 7.25C29.0001 7.75116 28.595 8.15625 28.0939 8.15625C27.5945 8.15625 27.1894 8.56134 27.1894 9.06069C27.1894 9.56184 26.7844 9.96694 26.2832 9.96694Z" fill="#0F6D70"/>
<path d="M42.5941 9.96873C42.0929 9.96873 41.6878 9.56364 41.6878 9.06248C41.6878 8.56133 41.2809 8.15442 40.7798 8.15442C40.2786 8.15442 39.8735 7.74933 39.8735 7.24817C39.8735 6.74701 40.2786 6.34192 40.7798 6.34192C42.2796 6.34192 43.5003 7.56264 43.5003 9.06248C43.5003 9.56364 43.0952 9.96873 42.5941 9.96873Z" fill="#0F6D70"/>
<path d="M40.7794 8.15625H28.0937C27.5926 8.15625 27.1875 7.75116 27.1875 7.25C27.1875 6.74884 27.5926 6.34375 28.0937 6.34375H40.7794C41.2806 6.34375 41.6857 6.74884 41.6857 7.25C41.6857 7.75116 41.2806 8.15625 40.7794 8.15625Z" fill="#0F6D70"/>
<path d="M51.6562 15.4053H48.0303C47.5291 15.4053 47.124 15.0002 47.124 14.499C47.124 13.9979 47.5291 13.5928 48.0303 13.5928H51.6562C52.1573 13.5928 52.5624 13.9979 52.5624 14.499C52.5624 15.0002 52.1573 15.4053 51.6562 15.4053Z" fill="#0F6D70"/>
<path d="M20.8447 15.4053H6.34375C5.84259 15.4053 5.4375 15.0002 5.4375 14.499C5.4375 13.9979 5.84259 13.5928 6.34375 13.5928H20.8447C21.3458 13.5928 21.7509 13.9979 21.7509 14.499C21.7509 15.0002 21.3458 15.4053 20.8447 15.4053Z" fill="#0F6D70"/>
<path d="M38.9696 11.7803H29.9053C29.4041 11.7803 28.999 11.3752 28.999 10.874C28.999 10.3729 29.4041 9.96777 29.9053 9.96777H38.9696C39.4707 9.96777 39.8758 10.3729 39.8758 10.874C39.8758 11.3752 39.4707 11.7803 38.9696 11.7803Z" fill="#0F6D70"/>
<path d="M36.25 14.5H32.625C32.1238 14.5 31.7188 14.0949 31.7188 13.5938C31.7188 13.0926 32.1238 12.6875 32.625 12.6875H36.25C36.7512 12.6875 37.1562 13.0926 37.1562 13.5938C37.1562 14.0949 36.7512 14.5 36.25 14.5Z" fill="#0F6D70"/>
<path d="M48.9375 37.1553C48.7499 37.1553 48.565 37.1435 48.3838 37.1227C47.8863 37.0628 47.5328 36.6106 47.5926 36.114C47.6524 35.6174 48.1001 35.2648 48.6013 35.3228C48.7118 35.3373 48.8242 35.3428 48.9375 35.3428C50.4364 35.3428 51.6563 34.123 51.6563 32.624C51.6563 31.1251 50.4364 29.9053 48.9375 29.9053C48.8224 29.9053 48.7091 29.9116 48.5977 29.9252C48.1137 29.9868 47.6497 29.6307 47.5899 29.1331C47.531 28.6365 47.8844 28.1852 48.382 28.1254C48.5641 28.1046 48.7481 28.0928 48.9375 28.0928C51.436 28.0928 53.4688 30.1255 53.4688 32.624C53.4688 35.1226 51.436 37.1553 48.9375 37.1553Z" fill="#0F6D70"/>
</svg>
