<svg width="58" height="58" viewBox="0 0 58 58" fill="none" xmlns="http://www.w3.org/2000/svg">
<g clip-path="url(#clip0)">
<path d="M55.2812 13.2766V16.3035H52.5625V13.2766C52.9703 13.476 53.4325 13.5847 53.9219 13.5847C54.4112 13.5847 54.8734 13.476 55.2812 13.2766Z" fill="#D7E9FF"/>
<path d="M38.0534 50.7591H17.2188C23.1819 50.7591 28.7372 49.0743 33.4497 46.1462L33.4587 46.1653L38.0534 50.7591Z" fill="#56D589"/>
<path d="M48.0313 40.7903V50.7591L39.0142 41.7419C40.6916 40.0653 42.1679 38.1993 43.4185 36.1775L43.4367 36.1965L48.0313 40.7903Z" fill="#56D589"/>
<path d="M17.2188 3.63406V15.08C15.2522 16.7747 13.4397 18.6325 11.7812 20.6262V3.63406V3.625H17.2188V3.63406Z" fill="#56D589"/>
<path d="M48.0312 50.7592V54.3842H0.90625V50.7592H6.34375H11.7812H17.2188H38.0534H48.0312Z" fill="white"/>
<path d="M28.0938 3.63406V8.03844C26.2088 8.9175 24.3872 9.91437 22.6562 11.0291V3.63406V3.625H28.0938V3.63406Z" fill="#56D589"/>
<path d="M55.2812 16.3035V53.0247C55.2812 53.7769 54.6741 54.3841 53.9219 54.3841C53.1787 54.3841 52.5625 53.7769 52.5625 53.0247V16.3035H55.2812Z" fill="#56D589"/>
<path d="M48.0313 50.7591H38.0535L33.4588 46.1653L33.4497 46.1463C35.4697 44.8957 37.3375 43.4185 39.0141 41.7419L48.0313 50.7591Z" fill="#56D589"/>
<path d="M48.125 4V9.4375C25.0791 9.4375 6.4375 28.0791 6.4375 51.125H1C1 43.169 2.96656 35.6825 6.4375 29.1122C7.96906 26.2122 9.79062 23.4934 11.875 20.9922C13.5334 18.9984 15.3459 17.1406 17.3125 15.4459C19.0163 13.9687 20.8378 12.6184 22.75 11.395C24.4809 10.2812 26.3025 9.28344 28.1875 8.40437C34.2412 5.57687 40.9928 4 48.125 4Z" fill="#56D589"/>
<path d="M48.0312 9.07153V14.509C27.9941 14.509 11.7812 30.7228 11.7812 50.759H6.34375C6.34375 27.7131 24.9853 9.07153 48.0312 9.07153Z" fill="white"/>
<path d="M57.0938 10.4128C57.0938 11.6725 56.3597 12.7691 55.2812 13.2766C54.8734 13.476 54.4113 13.5847 53.9219 13.5847C53.4325 13.5847 52.9703 13.476 52.5625 13.2766C51.4931 12.7682 50.75 11.6716 50.75 10.4128C50.75 8.66287 52.1728 3.61597 53.9219 3.61597C55.68 3.61597 57.0938 8.66378 57.0938 10.4128Z" fill="#56D589"/>
<path d="M48.125 14.875V20.3125C31.0875 20.3125 17.3125 34.0875 17.3125 51.125H11.875C11.875 31.0878 28.0878 14.875 48.125 14.875Z" fill="#56D589"/>
<path d="M11.7812 3.63406V20.6262C9.69688 23.1275 7.87531 25.8462 6.34375 28.7463V3.63406V3.625H11.7812V3.63406Z" fill="#56D589"/>
<path d="M48.0313 19.9465V40.7903L43.4366 36.1965L43.4185 36.1775C46.3456 31.465 48.0313 25.9006 48.0313 19.9465Z" fill="#56D589"/>
<path d="M39.0141 41.7418C37.3375 43.4193 35.4706 44.8956 33.4497 46.1462C28.7372 49.0734 23.1819 50.759 17.2188 50.759C17.2188 33.7215 30.9938 19.9465 48.0312 19.9465C48.0312 25.9006 46.3456 31.465 43.4184 36.1775C42.1678 38.1984 40.6906 40.0653 39.0141 41.7418ZM38.0625 35.3528C38.0625 32.3531 35.6247 29.9153 32.625 29.9153C29.6253 29.9153 27.1875 32.3531 27.1875 35.3528C27.1875 38.3534 29.6253 40.7903 32.625 40.7903C35.6247 40.7903 38.0625 38.3525 38.0625 35.3528Z" fill="white"/>
<path d="M48.0312 3.625V3.63406C40.8991 3.63406 34.1475 5.21094 28.0938 8.03844V3.63406V3.625H48.0312Z" fill="#56D589"/>
<path d="M22.6562 3.63406V11.0291C20.7441 12.2525 18.9225 13.6028 17.2188 15.08V3.63406V3.625H22.6562V3.63406Z" fill="#56D589"/>
<path d="M32.625 29.9153C35.6247 29.9153 38.0625 32.3531 38.0625 35.3528C38.0625 38.3534 35.6247 40.7903 32.625 40.7903C29.6253 40.7903 27.1875 38.3534 27.1875 35.3528C27.1875 32.3531 29.6253 29.9153 32.625 29.9153Z" fill="#56D589"/>
<path d="M6.34375 3.63406V28.7463C2.87281 35.3166 0.90625 42.8022 0.90625 50.7591V14.5091V3.625H6.34375V3.63406Z" fill="#56D589"/>
<path d="M48.0278 51.6635H0.902832C0.401676 51.6635 -0.00341797 51.2584 -0.00341797 50.7572V3.625C-0.00341797 3.12384 0.401676 2.71875 0.902832 2.71875H48.0278C48.529 2.71875 48.9341 3.12384 48.9341 3.625V50.7572C48.9341 51.2584 48.529 51.6635 48.0278 51.6635ZM1.80908 49.851H47.1216V4.53125H1.80908V49.851Z" fill="#0F6D70"/>
<path d="M48.0278 55.2886H0.902832C0.401676 55.2886 -0.00341797 54.8835 -0.00341797 54.3823V14.5073C-0.00341797 14.0062 0.401676 13.6011 0.902832 13.6011C1.40399 13.6011 1.80908 14.0062 1.80908 14.5073V53.4761H47.1216V14.5073C47.1216 14.0062 47.5267 13.6011 48.0278 13.6011C48.529 13.6011 48.9341 14.0062 48.9341 14.5073V54.3823C48.9341 54.8835 48.529 55.2886 48.0278 55.2886Z" fill="#0F6D70"/>
<path d="M53.9258 55.2904C52.6761 55.2904 51.6602 54.2745 51.6602 53.0248C51.6602 52.5236 52.0653 52.1185 52.5664 52.1185C53.0676 52.1185 53.4727 52.5236 53.4727 53.0248C53.4727 53.274 53.6766 53.4779 53.9258 53.4779C54.175 53.4779 54.3789 53.274 54.3789 53.0248C54.3789 52.5236 54.784 52.1185 55.2852 52.1185C55.7863 52.1185 56.1914 52.5236 56.1914 53.0248C56.1914 54.2745 55.1755 55.2904 53.9258 55.2904Z" fill="#0F6D70"/>
<path d="M52.5664 53.931C52.0653 53.931 51.6602 53.5259 51.6602 53.0247V16.3035C51.6602 15.8023 52.0653 15.3972 52.5664 15.3972C53.0676 15.3972 53.4727 15.8023 53.4727 16.3035V53.0247C53.4727 53.5259 53.0676 53.931 52.5664 53.931Z" fill="#0F6D70"/>
<path d="M55.2852 53.931C54.784 53.931 54.3789 53.5259 54.3789 53.0247V16.3035C54.3789 15.8023 54.784 15.3972 55.2852 15.3972C55.7863 15.3972 56.1914 15.8023 56.1914 16.3035V53.0247C56.1914 53.5259 55.7863 53.931 55.2852 53.931Z" fill="#0F6D70"/>
<path d="M55.2852 17.2097H52.5664C52.0653 17.2097 51.6602 16.8046 51.6602 16.3034V13.2802C51.6602 12.779 52.0653 12.3739 52.5664 12.3739C53.0676 12.3739 53.4727 12.779 53.4727 13.2802V15.3972H54.3789V13.2802C54.3789 12.779 54.784 12.3739 55.2852 12.3739C55.7863 12.3739 56.1914 12.779 56.1914 13.2802V16.3034C56.1914 16.8046 55.7863 17.2097 55.2852 17.2097Z" fill="#0F6D70"/>
<path d="M53.9258 14.4928C51.6774 14.4928 49.8477 12.6631 49.8477 10.4147C49.8477 8.88944 51.159 2.70972 53.9258 2.70972C56.6925 2.70972 58.0039 8.88944 58.0039 10.4147C58.0039 12.664 56.1742 14.4928 53.9258 14.4928ZM53.9258 4.52222C53.2243 4.52222 51.6602 8.28044 51.6602 10.4147C51.6602 11.6644 52.6761 12.6803 53.9258 12.6803C55.1755 12.6803 56.1914 11.6644 56.1914 10.4147C56.1914 8.28134 54.6272 4.52222 53.9258 4.52222Z" fill="#0F6D70"/>
<path d="M0.902832 51.6636C0.401676 51.6636 -0.00341797 51.2585 -0.00341797 50.7573C-0.00341797 24.2712 21.5427 2.72424 48.0278 2.72424C48.529 2.72424 48.9341 3.12934 48.9341 3.63049C48.9341 4.13165 48.529 4.53674 48.0278 4.53674C22.5432 4.53674 1.80908 25.2708 1.80908 50.7573C1.80908 51.2585 1.40399 51.6636 0.902832 51.6636Z" fill="#0F6D70"/>
<path d="M6.34033 51.6636C5.83918 51.6636 5.43408 51.2585 5.43408 50.7573C5.43408 27.27 24.5415 8.16174 48.0278 8.16174C48.529 8.16174 48.9341 8.56684 48.9341 9.06799C48.9341 9.56915 48.529 9.97424 48.0278 9.97424C25.541 9.97424 7.24658 28.2696 7.24658 50.7573C7.24658 51.2585 6.84149 51.6636 6.34033 51.6636Z" fill="#0F6D70"/>
<path d="M11.7778 51.6636C11.2767 51.6636 10.8716 51.2585 10.8716 50.7573C10.8716 30.2688 27.5402 13.5992 48.0278 13.5992C48.529 13.5992 48.9341 14.0043 48.9341 14.5055C48.9341 15.0067 48.529 15.4117 48.0278 15.4117C28.5389 15.4117 12.6841 31.2675 12.6841 50.7573C12.6841 51.2585 12.279 51.6636 11.7778 51.6636Z" fill="#0F6D70"/>
<path d="M17.2153 51.6636C16.7142 51.6636 16.3091 51.2585 16.3091 50.7573C16.3091 33.2667 30.5381 19.0367 48.0278 19.0367C48.529 19.0367 48.9341 19.4418 48.9341 19.943C48.9341 20.4441 48.529 20.8492 48.0278 20.8492C31.5377 20.8492 18.1216 34.2663 18.1216 50.7573C18.1216 51.2585 17.7165 51.6636 17.2153 51.6636Z" fill="#0F6D70"/>
<path d="M17.2153 51.6636C16.7142 51.6636 16.3091 51.2585 16.3091 50.7573C16.3091 50.2561 16.7142 49.8511 17.2153 49.8511C33.7055 49.8511 47.1216 36.434 47.1216 19.943C47.1216 19.4418 47.5267 19.0367 48.0278 19.0367C48.529 19.0367 48.9341 19.4418 48.9341 19.943C48.9341 37.4336 34.7051 51.6636 17.2153 51.6636Z" fill="#0F6D70"/>
<path d="M32.6216 41.6948C29.1244 41.6948 26.2778 38.8483 26.2778 35.3511C26.2778 31.8539 29.1244 29.0073 32.6216 29.0073C36.1188 29.0073 38.9653 31.8539 38.9653 35.3511C38.9653 38.8483 36.1188 41.6948 32.6216 41.6948ZM32.6216 30.8198C30.123 30.8198 28.0903 32.8525 28.0903 35.3511C28.0903 37.8496 30.123 39.8823 32.6216 39.8823C35.1201 39.8823 37.1528 37.8496 37.1528 35.3511C37.1528 32.8525 35.1201 30.8198 32.6216 30.8198Z" fill="#0F6D70"/>
<path d="M48.028 51.6636C47.796 51.6636 47.564 51.5747 47.3872 51.398L38.3673 42.3781C38.013 42.0238 38.013 41.451 38.3673 41.0967C38.7217 40.7423 39.2944 40.7423 39.6488 41.0967L48.6687 50.1166C49.023 50.4709 49.023 51.0437 48.6687 51.398C48.492 51.5747 48.26 51.6636 48.028 51.6636Z" fill="#0F6D70"/>
<path d="M48.028 41.6947C47.796 41.6947 47.564 41.6059 47.3873 41.4292L42.7926 36.8327C42.4383 36.4784 42.4383 35.9056 42.7926 35.5513C43.147 35.1969 43.7197 35.1969 44.0741 35.5513L48.6687 40.1478C49.0231 40.5021 49.0231 41.0749 48.6687 41.4292C48.492 41.6059 48.26 41.6947 48.028 41.6947Z" fill="#0F6D70"/>
<path d="M38.0537 51.669C37.8217 51.669 37.5897 51.5802 37.413 51.4035L32.8165 46.8088C32.4622 46.4544 32.4622 45.8817 32.8165 45.5274C33.1709 45.173 33.7436 45.173 34.098 45.5274L38.6945 50.122C39.0488 50.4764 39.0488 51.0491 38.6945 51.4035C38.5177 51.5802 38.2857 51.669 38.0537 51.669Z" fill="#0F6D70"/>
<path d="M6.34033 29.6517C5.83918 29.6517 5.43408 29.2466 5.43408 28.7454V3.63232C5.43408 3.13117 5.83918 2.72607 6.34033 2.72607C6.84149 2.72607 7.24658 3.13117 7.24658 3.63232V28.7454C7.24658 29.2457 6.84149 29.6517 6.34033 29.6517Z" fill="#0F6D70"/>
<path d="M11.7778 21.5326C11.2767 21.5326 10.8716 21.1275 10.8716 20.6263V3.63232C10.8716 3.13117 11.2767 2.72607 11.7778 2.72607C12.279 2.72607 12.6841 3.13117 12.6841 3.63232V20.6263C12.6841 21.1275 12.279 21.5326 11.7778 21.5326Z" fill="#0F6D70"/>
<path d="M17.2153 15.9909C16.7142 15.9909 16.3091 15.5858 16.3091 15.0846V3.63232C16.3091 3.13117 16.7142 2.72607 17.2153 2.72607C17.7165 2.72607 18.1216 3.13117 18.1216 3.63232V15.0846C18.1216 15.5849 17.7165 15.9909 17.2153 15.9909Z" fill="#0F6D70"/>
<path d="M22.6528 11.9354C22.1517 11.9354 21.7466 11.5303 21.7466 11.0291V3.63232C21.7466 3.13117 22.1517 2.72607 22.6528 2.72607C23.154 2.72607 23.5591 3.13117 23.5591 3.63232V11.0291C23.5591 11.5303 23.154 11.9354 22.6528 11.9354Z" fill="#0F6D70"/>
<path d="M28.0903 8.94205C27.5892 8.94205 27.1841 8.53695 27.1841 8.0358V3.63232C27.1841 3.13117 27.5892 2.72607 28.0903 2.72607C28.5915 2.72607 28.9966 3.13117 28.9966 3.63232V8.0358C28.9966 8.53695 28.5915 8.94205 28.0903 8.94205Z" fill="#0F6D70"/>
</g>
<defs>
<clipPath id="clip0">
<rect width="58" height="58" fill="white"/>
</clipPath>
</defs>
</svg>
