<svg width="16" height="14" viewBox="0 0 16 14" fill="none" xmlns="http://www.w3.org/2000/svg">
<path d="M12 14V13C12 12.8687 11.9741 12.7387 11.9239 12.6173C11.8736 12.4961 11.8 12.3858 11.7072 12.2929C11.6142 12.2 11.504 12.1264 11.3827 12.0761C11.2614 12.0259 11.1313 12 11 12H6.99972C5.67363 12 4.40186 11.4732 3.46416 10.5355C2.52647 9.59786 1.99967 8.32613 1.99965 7.00002C1.99965 6.34341 2.12898 5.69323 2.38026 5.0866C2.63154 4.47996 2.99985 3.92876 3.46415 3.46446C3.92845 3.00017 4.47965 2.63188 5.08629 2.38061C5.69292 2.12934 6.34311 2.00002 6.99972 2.00003H10.9997C11.131 2.00007 11.2611 1.97423 11.3825 1.924C11.5038 1.87376 11.6142 1.8001 11.707 1.70724C11.7999 1.61437 11.8736 1.50412 11.9239 1.38277C11.9741 1.26142 12 1.13136 12 1.00001V0H6.99995C6.0807 0 5.17045 0.181062 4.32116 0.532846C3.47189 0.884631 2.70022 1.40025 2.05021 2.05026C1.40021 2.70028 0.884591 3.47196 0.532818 4.32124C0.181042 5.17052 -9.849e-06 6.08077 4.01841e-10 7.00002C-3.48132e-10 8.85651 0.737489 10.637 2.05023 11.9498C3.36297 13.2625 5.14344 14 6.99995 14H12Z" fill="url(#paint0_linear)"/>
<path d="M3.99951 7.00002C3.99951 7.79567 4.31557 8.55869 4.87817 9.12125C5.44075 9.68388 6.20379 9.99992 6.9994 9.99992H11.9998C12.5303 9.99992 13.0389 10.2107 13.414 10.5857C13.7891 10.9608 13.9998 11.4695 13.9998 11.9999V14H15.9998V12C15.9998 10.9392 15.5784 9.92177 14.8283 9.17157C14.0781 8.42145 13.0607 8.00004 11.9998 8.00004H6.99955C6.73433 8.00004 6.47998 7.89467 6.29243 7.70717C6.1049 7.51961 5.99954 7.26524 5.99954 7.00002C5.99954 6.7348 6.1049 6.48045 6.29243 6.2929C6.47998 6.10537 6.73433 6.00001 6.99955 6.00001H11.9998C13.0607 6.00001 14.0781 5.57859 14.8283 4.82844C15.5784 4.0783 15.9998 3.06089 15.9998 2.00003V0H13.9995V2.00003C13.9995 2.53039 13.7888 3.03905 13.4138 3.4141C13.0389 3.78916 12.5302 3.9999 11.9998 3.99998H6.99955C6.60558 3.99996 6.21546 4.07754 5.85147 4.2283C5.48747 4.37906 5.15674 4.60005 4.87817 4.87863C4.59958 5.15721 4.3786 5.48794 4.22784 5.85194C4.07708 6.21593 3.9995 6.60605 3.99951 7.00002Z" fill="url(#paint1_linear)"/>
<defs>
<linearGradient id="paint0_linear" x1="1.812" y1="7.00002" x2="17.2081" y2="7.00002" gradientUnits="userSpaceOnUse">
<stop stop-color="#F54A48"/>
<stop offset="1" stop-color="#FA982F"/>
</linearGradient>
<linearGradient id="paint1_linear" x1="1.80346" y1="6.99999" x2="17.2119" y2="6.99999" gradientUnits="userSpaceOnUse">
<stop stop-color="#F54A48"/>
<stop offset="1" stop-color="#FA982F"/>
</linearGradient>
</defs>
</svg>
