<svg width="16" height="16" viewBox="0 0 16 16" fill="none" xmlns="http://www.w3.org/2000/svg">
<path d="M13.0686 4.51094C13.3436 4.43724 13.5868 4.27514 13.7607 4.04961C13.9345 3.82408 14.0293 3.54764 14.0305 3.26291V3.25953C14.0305 2.91732 13.8946 2.58913 13.6525 2.34715C13.4106 2.10518 13.0824 1.96924 12.7402 1.96924H12.7369C12.4522 1.97048 12.1758 2.06532 11.9503 2.23914C11.7248 2.41295 11.5627 2.6561 11.4891 2.93111C11.2783 3.69466 10.8228 4.36798 10.1926 4.84782C9.56231 5.32765 8.79209 5.58749 7.99997 5.58749C7.20786 5.58749 6.43761 5.32765 5.80736 4.84782C5.17711 4.36798 4.72167 3.69466 4.51087 2.93111C4.43714 2.65612 4.27502 2.41301 4.04951 2.23924C3.824 2.06546 3.54761 1.97066 3.26291 1.96945H3.25953C2.91733 1.96945 2.58913 2.10539 2.34715 2.34737C2.10518 2.58934 1.96924 2.91754 1.96924 3.25974V3.26313C1.9705 3.54782 2.06534 3.82421 2.23915 4.0497C2.41297 4.27518 2.65611 4.43725 2.93111 4.51094C3.69466 4.72173 4.36799 5.17718 4.84782 5.80743C5.32765 6.43767 5.58749 7.20792 5.58749 8.00004C5.58749 8.79215 5.32765 9.56238 4.84782 10.1927C4.36799 10.8229 3.69466 11.2783 2.93111 11.4891C2.65612 11.5629 2.413 11.7249 2.2392 11.9504C2.0654 12.1759 1.97057 12.4522 1.96931 12.7369V12.7403C1.96931 13.0825 2.10525 13.4106 2.34723 13.6527C2.58921 13.8946 2.91739 14.0306 3.2596 14.0306H3.26298C3.54768 14.0293 3.82406 13.9344 4.04955 13.7607C4.27504 13.5868 4.43711 13.3437 4.5108 13.0687C4.72159 12.3052 5.17704 11.6318 5.80729 11.152C6.43754 10.6721 7.20779 10.4123 7.9999 10.4123C8.79201 10.4123 9.56224 10.6721 10.1925 11.152C10.8227 11.6318 11.2782 12.3052 11.489 13.0687C11.5626 13.3437 11.7248 13.5869 11.9502 13.7607C12.1757 13.9345 12.4522 14.0294 12.7369 14.0306H12.7403C13.0824 14.0306 13.4106 13.8946 13.6526 13.6527C13.8946 13.4107 14.0306 13.0825 14.0306 12.7403V12.7369C14.0293 12.4522 13.9345 12.1758 13.7607 11.9503C13.5868 11.7248 13.3437 11.5628 13.0687 11.4891C12.3052 11.2783 11.6318 10.8229 11.152 10.1926C10.6721 9.56231 10.4123 8.79208 10.4123 7.99996C10.4123 7.20785 10.6721 6.43761 11.152 5.80736C11.6318 5.17711 12.3052 4.72167 13.0687 4.51087L13.0686 4.51094Z" fill="url(#paint0_linear)"/>
<path d="M1.68861 0.764145C1.73011 0.805424 1.78345 0.832745 1.8412 0.842305C1.89895 0.851865 1.95824 0.843191 2.01084 0.81749C2.49071 0.585745 3.03064 0.50856 3.55622 0.596573C4.0818 0.684586 4.56713 0.933467 4.94532 1.3089C4.99746 1.36143 5.06791 1.39172 5.1419 1.39342C5.21589 1.39511 5.28766 1.36807 5.34213 1.31797C5.3692 1.29213 5.39084 1.26115 5.40576 1.22683C5.42068 1.19251 5.4286 1.15556 5.42903 1.11814C5.42947 1.08072 5.42242 1.04359 5.4083 1.00893C5.39418 0.974278 5.37328 0.942797 5.34681 0.916333C4.88563 0.456286 4.29271 0.15117 3.65029 0.0433135C3.00787 -0.0645429 2.34781 0.0302082 1.76168 0.314421C1.72177 0.334209 1.68715 0.363227 1.6607 0.399068C1.63425 0.43491 1.61673 0.476541 1.60958 0.520509C1.60244 0.564477 1.60588 0.609514 1.61963 0.651885C1.63337 0.694257 1.65702 0.732742 1.68861 0.764145Z" fill="url(#paint1_linear)"/>
<path d="M0.315508 1.75918C0.0316416 2.34343 -0.063919 3.00137 0.0420103 3.64223C0.147939 4.2831 0.450138 4.87529 0.906912 5.33712C0.954944 5.38759 1.01963 5.41897 1.08901 5.42544C1.15838 5.43191 1.22775 5.41304 1.28429 5.37232C1.31632 5.34812 1.34279 5.31733 1.36191 5.28202C1.38103 5.24673 1.39236 5.20773 1.39512 5.16768C1.3979 5.12763 1.39204 5.08746 1.37797 5.04985C1.36389 5.01225 1.34191 4.97812 1.31352 4.94974C0.936162 4.57146 0.685786 4.08519 0.597082 3.5583C0.508378 3.0314 0.585736 2.48996 0.818436 2.00899C0.844331 1.95634 0.853149 1.89691 0.843661 1.83901C0.83418 1.7811 0.806859 1.72761 0.765522 1.68597C0.734091 1.65435 0.695581 1.63069 0.653175 1.61694C0.61077 1.60319 0.565699 1.59975 0.521699 1.60691C0.4777 1.61407 0.436042 1.63161 0.400182 1.6581C0.364323 1.68458 0.335294 1.71923 0.315508 1.75918Z" fill="url(#paint2_linear)"/>
<path d="M13.9895 15.1822C13.5095 15.414 12.9694 15.4912 12.4436 15.403C11.918 15.3149 11.4325 15.0658 11.0544 14.6901C11.0023 14.6379 10.9321 14.6077 10.8584 14.606C10.7846 14.6043 10.7131 14.6312 10.6588 14.6811C10.6316 14.7069 10.6098 14.7379 10.5948 14.7723C10.5798 14.8066 10.5718 14.8436 10.5713 14.8811C10.5708 14.9186 10.5779 14.9558 10.592 14.9905C10.6061 15.0253 10.627 15.0568 10.6535 15.0833C11.1147 15.5434 11.7076 15.8485 12.3501 15.9564C12.9924 16.0642 13.6525 15.9695 14.2387 15.6852C14.2785 15.6655 14.3132 15.6364 14.3397 15.6006C14.3661 15.5647 14.3836 15.5231 14.3907 15.4791C14.3978 15.4352 14.3944 15.3901 14.3806 15.3478C14.3669 15.3054 14.3432 15.2669 14.3116 15.2355C14.2701 15.1943 14.2168 15.167 14.159 15.1574C14.1014 15.1478 14.0421 15.1565 13.9895 15.1822Z" fill="url(#paint3_linear)"/>
<path d="M14.6816 10.6585C14.6317 10.7129 14.6048 10.7844 14.6065 10.8581C14.6082 10.9319 14.6383 11.0021 14.6906 11.0541C15.0665 11.4326 15.3157 11.9184 15.4036 12.4445C15.4916 12.9707 15.414 13.5111 15.1816 13.9913C15.1558 14.0439 15.1471 14.1033 15.1566 14.1611C15.1662 14.2189 15.1935 14.2723 15.2348 14.3138C15.2662 14.3454 15.3046 14.3691 15.3469 14.3829C15.3893 14.3966 15.4343 14.4001 15.4783 14.393C15.5222 14.3858 15.5639 14.3684 15.5996 14.342C15.6355 14.3156 15.6646 14.281 15.6844 14.2411C15.9695 13.6548 16.0648 12.9943 15.9573 12.3514C15.8497 11.7084 15.5446 11.1149 15.0842 10.6533C15.0577 10.6267 15.0261 10.6057 14.9913 10.5916C14.9565 10.5774 14.9193 10.5703 14.8818 10.5708C14.8442 10.5713 14.8072 10.5793 14.7728 10.5944C14.7384 10.6095 14.7075 10.6312 14.6816 10.6585Z" fill="url(#paint4_linear)"/>
<path d="M15.1821 2.00937C15.4143 2.48945 15.4916 3.02976 15.4036 3.55571C15.3156 4.08166 15.0664 4.56732 14.6906 4.94565C14.6383 4.99765 14.6082 5.06787 14.6065 5.1416C14.6048 5.21532 14.6317 5.28684 14.6816 5.34117C14.7074 5.36837 14.7384 5.39013 14.7728 5.40516C14.8071 5.42019 14.8441 5.42819 14.8816 5.42869C14.9191 5.42918 14.9563 5.42217 14.991 5.40805C15.0257 5.39393 15.0573 5.373 15.0838 5.3465C15.5441 4.8851 15.8493 4.29185 15.957 3.64911C16.0648 3.00638 15.9697 2.34604 15.6851 1.75978C15.6653 1.71989 15.6362 1.6853 15.6004 1.65888C15.5645 1.63245 15.5229 1.61496 15.4789 1.60785C15.435 1.60073 15.3899 1.6042 15.3476 1.61796C15.3052 1.63173 15.2668 1.65539 15.2354 1.68699C15.1941 1.72852 15.1668 1.78189 15.1572 1.83966C15.1477 1.89744 15.1564 1.95676 15.1821 2.00937Z" fill="url(#paint5_linear)"/>
<path d="M11.0544 1.30963C11.4327 0.933784 11.9183 0.684645 12.4443 0.596597C12.9703 0.508549 13.5106 0.585936 13.9907 0.818073C14.0433 0.843838 14.1026 0.852556 14.1603 0.843018C14.2181 0.833486 14.2715 0.806166 14.313 0.764872C14.3446 0.733491 14.3683 0.695024 14.3821 0.652666C14.3958 0.610308 14.3993 0.56528 14.3921 0.521314C14.3851 0.477348 14.3676 0.435712 14.3412 0.399859C14.3148 0.364005 14.2801 0.334966 14.2402 0.315149C13.654 0.0304915 12.9937 -0.0645626 12.3509 0.043185C11.7082 0.150933 11.1149 0.456134 10.6535 0.916412C10.627 0.942926 10.6061 0.974473 10.592 1.0092C10.5779 1.04394 10.5708 1.08114 10.5713 1.11863C10.5718 1.15612 10.5798 1.19313 10.5948 1.22748C10.6098 1.26183 10.6316 1.29282 10.6588 1.31862C10.7131 1.36848 10.7846 1.39539 10.8584 1.39371C10.9321 1.39203 11.0023 1.3619 11.0544 1.30963Z" fill="url(#paint6_linear)"/>
<path d="M4.94589 14.6902C4.56757 15.066 4.08191 15.3151 3.55596 15.4032C3.03001 15.4912 2.4897 15.4138 2.00961 15.1817C1.95701 15.156 1.89769 15.1473 1.83991 15.1568C1.78213 15.1663 1.72877 15.1937 1.68724 15.2349C1.65564 15.2663 1.63198 15.3048 1.61821 15.3472C1.60445 15.3895 1.60098 15.4346 1.60809 15.4785C1.61521 15.5225 1.6327 15.5641 1.65912 15.5999C1.68554 15.6358 1.72013 15.6649 1.76002 15.6847C2.34628 15.9693 3.00662 16.0643 3.64936 15.9566C4.2921 15.8489 4.88535 15.5436 5.34674 15.0834C5.37325 15.0569 5.39418 15.0253 5.4083 14.9906C5.42241 14.9559 5.42943 14.9187 5.42893 14.8812C5.42843 14.8437 5.42043 14.8067 5.4054 14.7723C5.39037 14.738 5.36861 14.707 5.34141 14.6812C5.28709 14.6313 5.21557 14.6044 5.14184 14.606C5.06811 14.6078 4.99789 14.6378 4.94589 14.6902Z" fill="url(#paint7_linear)"/>
<path d="M0.818149 13.9904C0.585979 13.5103 0.508569 12.97 0.596604 12.4441C0.68464 11.9181 0.933781 11.4324 1.30963 11.0541C1.3619 11.0021 1.39204 10.9319 1.39372 10.8582C1.39539 10.7844 1.36848 10.7129 1.31863 10.6585C1.29282 10.6313 1.26183 10.6096 1.22748 10.5945C1.19313 10.5796 1.15612 10.5716 1.11863 10.5711C1.08115 10.5706 1.04393 10.5776 1.00921 10.5917C0.974477 10.6058 0.942924 10.6268 0.916417 10.6533C0.456136 11.1147 0.150932 11.7079 0.043185 12.3507C-0.0645626 12.9934 0.0304915 13.6537 0.31515 14.24C0.334965 14.2799 0.364005 14.3145 0.399858 14.3409C0.435712 14.3674 0.477348 14.3848 0.521314 14.3919C0.56528 14.399 0.61031 14.3956 0.652667 14.3818C0.695025 14.3681 0.733488 14.3444 0.764876 14.3128C0.806163 14.2712 0.833476 14.2179 0.843029 14.1601C0.852575 14.1024 0.843879 14.043 0.818149 13.9904Z" fill="url(#paint8_linear)"/>
<defs>
<linearGradient id="paint0_linear" x1="7.9999" y1="15.1282" x2="7.9999" y2="5.72033" gradientUnits="userSpaceOnUse">
<stop offset="0.005" stop-color="#3F51DC"/>
<stop offset="1" stop-color="#2AC3D1"/>
</linearGradient>
<linearGradient id="paint1_linear" x1="3.5175" y1="15.1319" x2="3.5175" y2="5.72166" gradientUnits="userSpaceOnUse">
<stop offset="0.005" stop-color="#3F51DC"/>
<stop offset="1" stop-color="#2AC3D1"/>
</linearGradient>
<linearGradient id="paint2_linear" x1="0.697898" y1="15.1267" x2="0.697898" y2="5.72109" gradientUnits="userSpaceOnUse">
<stop offset="0.005" stop-color="#3F51DC"/>
<stop offset="1" stop-color="#2AC3D1"/>
</linearGradient>
<linearGradient id="paint3_linear" x1="12.4828" y1="15.1272" x2="12.4828" y2="5.71818" gradientUnits="userSpaceOnUse">
<stop offset="0.005" stop-color="#3F51DC"/>
<stop offset="1" stop-color="#2AC3D1"/>
</linearGradient>
<linearGradient id="paint4_linear" x1="15.3033" y1="15.1273" x2="15.3033" y2="5.71978" gradientUnits="userSpaceOnUse">
<stop offset="0.005" stop-color="#3F51DC"/>
<stop offset="1" stop-color="#2AC3D1"/>
</linearGradient>
<linearGradient id="paint5_linear" x1="15.3033" y1="15.1276" x2="15.3033" y2="5.71937" gradientUnits="userSpaceOnUse">
<stop offset="0.005" stop-color="#3F51DC"/>
<stop offset="1" stop-color="#2AC3D1"/>
</linearGradient>
<linearGradient id="paint6_linear" x1="12.4835" y1="15.1323" x2="12.4835" y2="5.7215" gradientUnits="userSpaceOnUse">
<stop offset="0.005" stop-color="#3F51DC"/>
<stop offset="1" stop-color="#2AC3D1"/>
</linearGradient>
<linearGradient id="paint7_linear" x1="3.51672" y1="15.1272" x2="3.51672" y2="5.71768" gradientUnits="userSpaceOnUse">
<stop offset="0.005" stop-color="#3F51DC"/>
<stop offset="1" stop-color="#2AC3D1"/>
</linearGradient>
<linearGradient id="paint8_linear" x1="0.696894" y1="15.126" x2="0.696894" y2="5.72157" gradientUnits="userSpaceOnUse">
<stop offset="0.005" stop-color="#3F51DC"/>
<stop offset="1" stop-color="#2AC3D1"/>
</linearGradient>
</defs>
</svg>
