<svg width="16" height="17" viewBox="0 0 16 17" fill="none" xmlns="http://www.w3.org/2000/svg">
<path d="M8.81621 2.782L9.43336 2.16485C10.6453 0.95294 12.6183 0.922944 13.8372 2.12787C14.299 2.58546 14.606 3.17623 14.7148 3.81719C14.8237 4.45817 14.729 5.11714 14.4442 5.70155C14.3075 5.98072 14.2615 6.2956 14.3124 6.6022C14.3635 6.90881 14.5089 7.19183 14.7286 7.41174C15.1325 7.0069 15.4526 6.52644 15.6708 5.99783C15.8889 5.46922 16.0008 4.9028 16 4.33095C15.9991 3.7591 15.8857 3.193 15.6661 2.66501C15.4464 2.13701 15.1249 1.65747 14.7198 1.25378C13.0154 -0.441011 10.2489 -0.407285 8.54926 1.29226L2.66682 7.17454L2.18323 6.69095C0.950765 5.45849 0.942909 3.4439 2.19712 2.23334C2.66137 1.78662 3.25284 1.49501 3.88988 1.39875C4.52693 1.30249 5.17814 1.40634 5.75366 1.69594C6.01634 1.83055 6.31484 1.87871 6.60653 1.83353C6.89821 1.78835 7.16816 1.65215 7.37782 1.44439L7.39282 1.42947C7.39748 1.42483 7.40118 1.41932 7.40371 1.41324C7.40624 1.40717 7.40754 1.40065 7.40754 1.39408C7.40754 1.3875 7.40624 1.38098 7.40371 1.37491C7.40118 1.36884 7.39748 1.36333 7.39282 1.35868C6.58318 0.569388 5.49823 0.126042 4.36752 0.122458C3.23682 0.118874 2.14907 0.555332 1.33445 1.33948C-0.420335 3.03347 -0.414064 5.85042 1.31064 7.57513L7.19133 13.4558L6.56665 14.0805C5.35474 15.2924 3.38165 15.3224 2.16284 14.1175C1.70098 13.6599 1.39406 13.0691 1.28518 12.4282C1.1763 11.7872 1.27092 11.1283 1.55577 10.5438C1.69243 10.2646 1.73848 9.94975 1.68751 9.6432C1.63654 9.33658 1.49107 9.05352 1.27144 8.83362C0.867546 9.23849 0.547376 9.71891 0.329219 10.2475C0.111062 10.7762 -0.000806252 11.3425 4.37412e-06 11.9144C0.000815003 12.4863 0.114288 13.0524 0.333944 13.5803C0.553599 14.1084 0.875132 14.5879 1.28017 14.9916C2.98448 16.6865 5.75112 16.6528 7.45075 14.9532L13.3408 9.06304L13.8262 9.54845C15.0381 10.7604 15.0681 12.7334 13.8632 13.9522C13.4056 14.4141 12.8148 14.721 12.1739 14.8299C11.5329 14.9388 10.874 14.8441 10.2895 14.5593C10.0103 14.4225 9.69523 14.3764 9.38852 14.4275C9.08181 14.4786 8.79867 14.6242 8.57878 14.844C8.98365 15.2479 9.46407 15.5681 9.99265 15.7862C10.5213 16.0044 11.0877 16.1163 11.6596 16.1155C12.2314 16.1146 12.7975 16.0011 13.3255 15.7815C13.8535 15.5618 14.3331 15.2403 14.7367 14.8353C16.4316 13.1309 16.3979 10.3643 14.6983 8.66475L8.81621 2.782ZM8.06948 12.5773L3.5452 8.05301L7.93775 3.66054L12.462 8.18482L8.06948 12.5773Z" fill="#18CDCA"/>
</svg>
