<svg width="16" height="16" viewBox="0 0 16 16" fill="none" xmlns="http://www.w3.org/2000/svg">
<path d="M9.84653 3.69216C7.80746 3.69216 3.72297 2.03918 3.72297 0H3.69277C3.69277 1.63206 4.34109 3.19727 5.49511 4.35134C6.64913 5.5054 8.2143 6.15377 9.84638 6.15383C10.8256 6.15383 11.7648 6.54283 12.4572 7.23526C13.1497 7.92769 13.5387 8.86684 13.5387 9.84607C13.5389 10.8253 13.1501 11.7646 12.4578 12.4571C11.7655 13.1498 10.8264 13.5389 9.84715 13.5391C8.86784 13.5393 7.92861 13.1505 7.23603 12.4581C6.54346 11.7658 6.15426 10.8268 6.15406 9.84753C6.15404 9.03938 5.99485 8.23915 5.68556 7.49256C5.37628 6.74594 4.92297 6.06755 4.35151 5.49613C3.78005 4.9247 3.10164 4.47144 2.35501 4.1622C1.60838 3.85297 0.808138 3.69382 0 3.69385V3.7238C2.03879 3.7238 3.69178 7.80653 3.69254 9.84599H3.69216C3.69215 11.0631 4.05304 12.2529 4.72921 13.2649C5.40539 14.2769 6.36646 15.0657 7.49092 15.5315C8.61538 15.9973 9.85268 16.1192 11.0465 15.8818C12.2401 15.6444 13.3367 15.0583 14.1974 14.1978C15.058 13.3371 15.6441 12.2407 15.8817 11.0469C16.1192 9.85322 15.9974 8.61592 15.5317 7.49141C15.066 6.36692 14.2773 5.40577 13.2654 4.72951C12.2534 4.05325 11.0636 3.69225 9.84653 3.69216Z" fill="url(#paint0_linear)"/>
<defs>
<linearGradient id="paint0_linear" x1="12.752" y1="13.84" x2="3.456" y2="1.072" gradientUnits="userSpaceOnUse">
<stop offset="0.295" stop-color="#E73959"/>
<stop offset="0.384" stop-color="#E73D58"/>
<stop offset="0.477" stop-color="#E74955"/>
<stop offset="0.571" stop-color="#E95E51"/>
<stop offset="0.666" stop-color="#EA7B4B"/>
<stop offset="0.761" stop-color="#EDA044"/>
<stop offset="0.857" stop-color="#EFCE3B"/>
<stop offset="0.868" stop-color="#F0D43A"/>
</linearGradient>
</defs>
</svg>
