<svg width="16" height="16" viewBox="0 0 16 16" fill="none" xmlns="http://www.w3.org/2000/svg">
<path d="M1.56601 7.01617C1.50102 6.77371 1.50102 6.51842 1.56598 6.27596C1.63095 6.0335 1.75859 5.81241 1.9361 5.63492L5.63484 1.93618C5.81233 1.75868 6.03342 1.63103 6.27588 1.56607C6.51834 1.5011 6.77363 1.50111 7.01609 1.56609L10.4772 2.49349C10.5132 2.01933 10.6783 1.56406 10.9546 1.17699L6.78591 0.0601228C6.48669 -0.0200426 6.17166 -0.020041 5.87245 0.0601281C5.57323 0.140297 5.3004 0.29781 5.08135 0.516836L0.516834 5.08135C0.297809 5.3004 0.140297 5.57323 0.0601281 5.87245C-0.020041 6.17165 -0.0200427 6.4867 0.0601229 6.78591L1.21996 11.1144C1.59911 10.8249 2.05052 10.645 2.52491 10.5946L1.56601 7.01617Z" fill="#18CDCA"/>
<path d="M13.4427 5.28564L14.4337 8.98369C14.4987 9.22619 14.4986 9.48146 14.4337 9.72387C14.3687 9.96638 14.241 10.1874 14.0635 10.3649L10.3648 14.0638C10.1873 14.2413 9.9662 14.3688 9.72369 14.4339C9.48128 14.4988 9.22593 14.4988 8.98351 14.4339L5.40507 13.475C5.35465 13.9494 5.17483 14.4008 4.88525 14.7799L9.21378 15.9397C9.51296 16.0199 9.82802 16.0199 10.1272 15.9397C10.4265 15.8595 10.6993 15.7021 10.9183 15.483L15.4828 10.9185C15.7019 10.6994 15.8594 10.4266 15.9396 10.1274C16.0198 9.8282 16.0198 9.51314 15.9396 9.21396L14.736 4.72339C14.3649 5.02631 13.9173 5.22088 13.4427 5.28564Z" fill="#18CDCA"/>
<path d="M1.3239 11.7113C1.03076 12.0044 0.831119 12.378 0.750239 12.7845C0.669359 13.1912 0.710868 13.6126 0.869518 13.9957C1.02816 14.3786 1.29682 14.706 1.64152 14.9363C1.98622 15.1666 2.39148 15.2896 2.80605 15.2896C3.22061 15.2896 3.62587 15.1666 3.97057 14.9363C4.31527 14.706 4.58394 14.3786 4.74258 13.9957C4.90123 13.6126 4.94274 13.1912 4.86185 12.7845C4.78098 12.378 4.58134 12.0044 4.28819 11.7113C3.8948 11.3188 3.36177 11.0984 2.80605 11.0984C2.25033 11.0984 1.7173 11.3188 1.3239 11.7113Z" fill="#4F80E1"/>
<path d="M11.6032 1.21597C11.3101 1.50911 11.1104 1.8826 11.0295 2.2892C10.9487 2.6958 10.9901 3.11726 11.1488 3.50027C11.3075 3.88328 11.5761 4.21065 11.9208 4.44097C12.2655 4.67129 12.6707 4.79423 13.0853 4.79423C13.4999 4.79423 13.9051 4.67129 14.2499 4.44097C14.5945 4.21065 14.8632 3.88328 15.0218 3.50027C15.1805 3.11726 15.222 2.6958 15.1411 2.2892C15.0603 1.8826 14.8606 1.50911 14.5675 1.21597C14.1741 0.823463 13.641 0.603027 13.0853 0.603027C12.5296 0.603027 11.9965 0.823463 11.6032 1.21597Z" fill="#4F80E1"/>
<path d="M9.23021 13.556C9.14602 13.556 9.06226 13.545 8.98093 13.5232L5.70531 12.6454C5.59609 12.0622 5.31312 11.5255 4.89353 11.106C4.47393 10.6864 3.93731 10.4034 3.35405 10.2942L2.47639 7.01882C2.43288 6.85545 2.433 6.68351 2.47676 6.52021C2.52052 6.3569 2.60638 6.20794 2.72575 6.08821L6.08782 2.72606C6.20741 2.60645 6.35637 2.52045 6.51975 2.47667C6.68313 2.4329 6.85515 2.43291 7.01851 2.4767L10.2023 3.3298C10.3286 3.90944 10.627 4.43743 11.0584 4.84461C11.4899 5.25178 12.0343 5.51916 12.6202 5.61171L13.5229 8.98124C13.5664 9.14467 13.5663 9.31661 13.5224 9.47987C13.4787 9.64322 13.3929 9.79216 13.2734 9.91194L9.91137 13.274C9.82214 13.3637 9.71591 13.4348 9.599 13.4832C9.48208 13.5316 9.35675 13.5563 9.23021 13.556Z" fill="#4F80E1"/>
</svg>
