<svg width="16" height="23" viewBox="0 0 16 23" fill="none" xmlns="http://www.w3.org/2000/svg">
<path d="M12.7004 5.72783C14.3868 4.37829 15.2752 2.68607 14.6846 1.94816C14.0941 1.21024 12.2483 1.70606 10.5619 3.05559C8.87555 4.40514 7.98718 6.09735 8.57769 6.83527C9.16821 7.57318 11.014 7.07736 12.7004 5.72783Z" fill="#29C16E"/>
<path d="M7.04423 7.05302C7.55178 6.54547 6.83357 5.00434 5.44004 3.61081C4.04653 2.2173 2.50539 1.49908 1.99784 2.00663C1.49029 2.51418 2.20851 4.05532 3.60203 5.44883C4.99555 6.84236 6.53668 7.56057 7.04423 7.05302Z" fill="#29C16E"/>
<path d="M13.8745 14.5515C14.6125 13.9611 14.1166 12.1153 12.7671 10.4289C11.4176 8.74249 9.72538 7.85412 8.98747 8.44464C8.24955 9.03516 8.74537 10.881 10.0949 12.5673C11.4444 14.2537 13.1367 15.1421 13.8745 14.5515Z" fill="#EF3C56"/>
<path d="M1.65479 15.1873C1.65479 16.944 2.35263 18.6287 3.5948 19.8709C4.83696 21.1131 6.52171 21.8109 8.2784 21.8109C11.9366 21.8109 17.397 15.8107 13.919 14.679C10.1031 13.4377 8.34325 8.6922 7.55239 8.60351C3.91714 8.19557 1.65479 11.5292 1.65479 15.1873Z" fill="#EF3C56"/>
<path d="M0.00320979 0.999701C0.00508126 2.42787 0.38872 3.82958 1.1144 5.05965C1.84007 6.28972 2.8814 7.30342 4.13053 7.99579C3.47587 8.35888 2.8752 8.81172 2.34598 9.34116C1.15874 10.5272 0.374543 12.0566 0.104366 13.7129C-0.165812 15.3691 0.0917104 17.0685 0.840488 18.5703C1.58926 20.0722 2.79137 21.3006 4.27672 22.0816C5.76206 22.8626 7.4554 23.1568 9.11713 22.9224C10.7789 22.6881 12.3249 21.9371 13.5363 20.7758C14.7477 19.6144 15.5632 18.1016 15.8674 16.4512C16.1717 14.8008 15.9492 13.0965 15.2315 11.5796C14.5139 10.0626 13.3373 8.80977 11.8684 7.99829C13.1192 7.30691 14.162 6.29322 14.8885 5.06253C15.6151 3.83184 15.9989 2.42907 16 0.999919C16 0.868613 15.9742 0.738587 15.9239 0.617269C15.8737 0.495951 15.8001 0.385718 15.7072 0.292865C15.6143 0.200011 15.5041 0.126358 15.3828 0.0761132C15.2615 0.0258677 15.1315 1.4143e-05 15.0002 2.84388e-05C13.9494 -0.00278281 12.9083 0.202858 11.9376 0.605051C10.9668 1.00724 10.0853 1.59799 9.34435 2.34312C8.81494 2.87236 8.36214 3.47303 7.99908 4.12767C7.30728 2.87806 6.2937 1.83633 5.06351 1.11058C3.83331 0.384829 2.43131 0.00149447 1.00299 0.000353871C0.871726 0.000325288 0.741743 0.0261525 0.620459 0.0763589C0.499175 0.126565 0.388968 0.200168 0.296129 0.292966C0.203291 0.385763 0.12964 0.49594 0.0793809 0.617201C0.0291216 0.738463 0.00323836 0.868437 0.00320979 0.999701ZM9.10321 6.89535C9.32581 5.7062 9.90268 4.61209 10.7581 3.75661C11.6136 2.90113 12.7077 2.32421 13.8968 2.10155C13.6725 3.28997 13.0951 4.38316 12.24 5.23835C11.3848 6.09355 10.2916 6.67102 9.10321 6.89535ZM12.2413 10.757C13.097 11.6115 13.6742 12.7049 13.8968 13.8935C12.709 13.6689 11.6163 13.0917 10.7615 12.2368C9.90666 11.382 9.32931 10.2894 9.10474 9.10155C10.2934 9.32416 11.3868 9.90129 12.2413 10.757ZM3.75969 10.7551C4.65658 9.85348 5.81861 9.26275 7.07557 9.06945C7.3112 10.8041 8.10904 12.4137 9.34687 13.6516C10.5847 14.8895 12.1942 15.6874 13.9289 15.9231C13.7828 16.859 13.417 17.747 12.8616 18.5144C12.3064 19.2818 11.5772 19.9068 10.7339 20.3381C9.89056 20.7696 8.95708 20.9951 8.00983 20.9964C7.06258 20.9976 6.1285 20.7747 5.28403 20.3455C4.43956 19.9164 3.70871 19.2934 3.15131 18.5275C2.5939 17.7616 2.22578 16.8746 2.07709 15.9391C1.92838 15.0036 2.00333 14.0462 2.29578 13.1452C2.58824 12.2442 3.08989 11.4254 3.75969 10.7555V10.7551ZM2.10571 2.10297C3.29361 2.32751 4.38627 2.90488 5.24112 3.75972C6.09597 4.61458 6.67333 5.70723 6.89788 6.89513C5.71005 6.67053 4.61747 6.09315 3.7627 5.2383C2.90792 4.38344 2.33064 3.29082 2.10615 2.10297H2.10571Z" fill="#0E1E28"/>
</svg>
