<svg width="38" height="38" viewBox="0 0 38 38" fill="none" xmlns="http://www.w3.org/2000/svg">
<g clip-path="url(#clip0)">
<path d="M26.5823 16.3732L18.8341 26.4473C18.1193 27.3767 17.0646 27.984 15.9021 28.1357C14.7395 28.2875 13.5643 27.9712 12.635 27.2564C11.7056 26.5416 11.0983 25.487 10.9466 24.3244C10.7949 23.1618 11.1112 21.9866 11.8259 21.0573L20.2479 10.1071C20.6946 9.52624 21.3538 9.14666 22.0804 9.05183C22.807 8.95701 23.5415 9.1547 24.1223 9.60143C24.7032 10.0482 25.0828 10.7073 25.1776 11.4339C25.2724 12.1605 25.0747 12.895 24.628 13.4759L17.5535 22.674C17.3748 22.9064 17.1112 23.0582 16.8205 23.0961C16.5299 23.1341 16.2361 23.055 16.0038 22.8763C15.7714 22.6976 15.6196 22.4339 15.5817 22.1433C15.5437 21.8527 15.6228 21.5589 15.8015 21.3265L22.2022 13.0044L20.8882 11.9937L14.4875 20.3159C14.0408 20.8967 13.8431 21.6312 13.9379 22.3578C14.0327 23.0844 14.4123 23.7436 14.9931 24.1903C15.574 24.6371 16.3085 24.8348 17.0351 24.7399C17.7617 24.6451 18.4208 24.2655 18.8676 23.6847L25.942 14.4865C26.6568 13.5572 26.9731 12.382 26.8214 11.2194C26.6696 10.0568 26.0623 9.00217 25.133 8.28741C24.2036 7.57264 23.0284 7.25633 21.8659 7.40805C20.7033 7.55977 19.6486 8.16711 18.9339 9.09644L10.5119 20.0467C9.52911 21.3245 9.09418 22.9404 9.3028 24.5389C9.51142 26.1374 10.3465 27.5876 11.6243 28.5704C12.9022 29.5532 14.5181 29.9881 16.1166 29.7795C17.7151 29.5709 19.1653 28.7358 20.1481 27.458L27.8963 17.3838L26.5823 16.3732Z" fill="#0F6D70"/>
</g>
<defs>
<clipPath id="clip0">
<rect width="26.5236" height="26.5236" fill="white" transform="translate(16.1699) rotate(37.5644)"/>
</clipPath>
</defs>
</svg>
